<svg xmlns="http://www.w3.org/2000/svg" xmlns:xlink="http://www.w3.org/1999/xlink" width="32" height="32" viewBox="0 0 32 32">
  <defs>
    <clipPath id="clip-path">
      <rect id="Rectangle_35" data-name="Rectangle 35" width="32" height="32" transform="translate(363 1326)"/>
    </clipPath>
  </defs>
  <g id="Ann._Return_In_5_Years" data-name="Ann. Return In 5 Years" transform="translate(-363 -1326)" clip-path="url(#clip-path)">
    <path id="return-on-investment" d="M32,16A16,16,0,0,1,4.686,27.314,15.9,15.9,0,0,1,0,16a16.21,16.21,0,0,1,.135-2.088.625.625,0,1,1,1.24.162A14.951,14.951,0,0,0,1.25,16,14.75,14.75,0,1,0,5.128,6.032H7.1a.625.625,0,0,1,0,1.25H3.79a.625.625,0,0,1-.625-.625V3.348a.625.625,0,1,1,1.25,0v1.62A16.143,16.143,0,0,1,8.862,1.677,16,16,0,0,1,32,16ZM16,25.914A9.914,9.914,0,1,1,25.914,16,9.925,9.925,0,0,1,16,25.914Zm0-1.25A8.664,8.664,0,1,0,7.336,16,8.674,8.674,0,0,0,16,24.664Zm.044-2.428a.625.625,0,0,0,.61-.64l-.016-.673A2.861,2.861,0,0,0,19.043,18.2,2.926,2.926,0,0,0,16,15.415a1.681,1.681,0,0,1-1.794-1.535A1.681,1.681,0,0,1,16,12.345a1.933,1.933,0,0,1,1.294.474.625.625,0,0,0,.833-.932,3.123,3.123,0,0,0-1.512-.735l-.019-.778a.625.625,0,1,0-1.25.03l.018.753a2.861,2.861,0,0,0-2.408,2.724A2.926,2.926,0,0,0,16,16.665,1.681,1.681,0,0,1,17.794,18.2,1.681,1.681,0,0,1,16,19.734a2.048,2.048,0,0,1-1.595-.758.625.625,0,1,0-.858.909,3.464,3.464,0,0,0,1.84,1.047l.017.694a.625.625,0,0,0,.625.61h.015Z" transform="translate(363 1326)"/>
  </g>
</svg>
