<svg xmlns="http://www.w3.org/2000/svg" xmlns:xlink="http://www.w3.org/1999/xlink" width="32" height="32" viewBox="0 0 32 32">
  <defs>
    <clipPath id="clip-path">
      <rect id="Rectangle_30" data-name="Rectangle 30" width="32" height="32" transform="translate(358 1321)"/>
    </clipPath>
  </defs>
  <g id="Start_Your_Business" data-name="Start Your Business" transform="translate(-358 -1321)" clip-path="url(#clip-path)">
    <g id="briefcase" transform="translate(357.484 1320.484)">
      <path id="Path_137" data-name="Path 137" d="M32,8.774H25.29V7.226a.516.516,0,0,0-.516-.516h-.516V6.194a3.617,3.617,0,0,0-3.613-3.613H12.387A3.617,3.617,0,0,0,8.774,6.194V6.71H8.258a.516.516,0,0,0-.516.516V8.774H1.032a.516.516,0,0,0-.516.516V29.935a.516.516,0,0,0,.516.516H32a.516.516,0,0,0,.516-.516V9.29A.516.516,0,0,0,32,8.774Zm-4.645,19.1v1.548H5.677V27.871a.516.516,0,0,0-.516-.516H3.613V25.806A.516.516,0,0,0,3.1,25.29H1.548V15.825l8.017,4.244a.516.516,0,0,0,.242.06h4.129v.516a.516.516,0,0,0,.516.516h.516V22.71a.516.516,0,0,0,.516.516h2.065a.516.516,0,0,0,.516-.516V21.161h.516a.516.516,0,0,0,.516-.516v-.516h4.129a.516.516,0,0,0,.242-.06l8.017-4.244V25.29H29.935a.516.516,0,0,0-.516.516v1.548H27.871A.516.516,0,0,0,27.355,27.871ZM16,21.161h1.032v1.032H16Zm-1.032-1.032V18.581a1.548,1.548,0,0,1,3.1,0v1.548ZM21.161,8.774V7.742h3.1V8.774ZM12.387,6.71h-.516V6.194a.516.516,0,0,1,.516-.516h8.258a.516.516,0,0,1,.516.516V6.71h-.516a.516.516,0,0,0-.516.516V8.774H12.9V7.226A.516.516,0,0,0,12.387,6.71ZM9.806,6.194a2.584,2.584,0,0,1,2.581-2.581h8.258a2.584,2.584,0,0,1,2.581,2.581V6.71H22.194V6.194a1.548,1.548,0,0,0-1.548-1.548H12.387a1.548,1.548,0,0,0-1.548,1.548V6.71H9.806ZM8.774,7.742h3.1V8.774h-3.1Zm22.71,2.065v4.859c-.248.122-.594.306-1.1.571L23.1,19.1h-4v-.516a2.581,2.581,0,0,0-5.161,0V19.1h-4l-7.29-3.86c-.5-.266-.849-.449-1.1-.572V9.806ZM1.548,26.323H2.581v1.548a.516.516,0,0,0,.516.516H4.645v1.032h-3.1Zm26.839,3.1V28.387h1.548a.516.516,0,0,0,.516-.516V26.323h1.032v3.1Z"/>
      <path id="Path_138" data-name="Path 138" d="M29.419,18.065h1.032v3.1H29.419Z"/>
      <path id="Path_139" data-name="Path 139" d="M29.419,22.194h1.032v1.032H29.419Z"/>
    </g>
  </g>
</svg>
