<svg xmlns="http://www.w3.org/2000/svg" xmlns:xlink="http://www.w3.org/1999/xlink" width="32" height="32" viewBox="0 0 32 32">
  <defs>
    <clipPath id="clip-path">
      <rect id="Rectangle_30" data-name="Rectangle 30" width="32" height="32" transform="translate(363 1326)"/>
    </clipPath>
  </defs>
  <g id="Cash_Flow" data-name="Cash Flow" transform="translate(-363 -1326)" clip-path="url(#clip-path)">
    <g id="cash-flow" transform="translate(362.324 1325.324)">
      <path id="Path_106" data-name="Path 106" d="M4.111,4.346v2.5a.667.667,0,0,0,.667.667h2.5a.667.667,0,0,0,0-1.334H6.392A14.688,14.688,0,0,1,27.016,6.3a.667.667,0,0,0,.943-.943A16.023,16.023,0,0,0,5.445,5.24V4.346a.667.667,0,0,0-1.334,0Z"/>
      <path id="Path_107" data-name="Path 107" d="M28.575,29.653a.667.667,0,0,0,.667-.667v-2.5a.667.667,0,0,0-.667-.667h-2.5a.667.667,0,0,0,0,1.334h.833a14.689,14.689,0,0,1-20.644-.1.667.667,0,0,0-.943.943,16.022,16.022,0,0,0,22.589.047v.943a.667.667,0,0,0,.667.667Z"/>
      <path id="Path_108" data-name="Path 108" d="M16.231,17.291c.411.145.908-.17,1.477.606A1.382,1.382,0,0,1,16.57,20.09a1.361,1.361,0,0,1-1-.447.667.667,0,1,0-.985.9,2.721,2.721,0,0,0,1.421.817v1.1a.667.667,0,1,0,1.334,0V21.305a2.7,2.7,0,0,0,1.2-.712,2.734,2.734,0,0,0,.237-3.487c-1.173-1.6-2.229-.655-3.031-1.532a1.381,1.381,0,1,1,2.033-1.869.667.667,0,0,0,.985-.9,2.694,2.694,0,0,0-1.425-.816v-1.1a.667.667,0,0,0-1.334,0v1.15a2.7,2.7,0,0,0,.22,5.251Z"/>
      <path id="Path_109" data-name="Path 109" d="M16.676,27.376a10.7,10.7,0,1,0-10.7-10.7A10.714,10.714,0,0,0,16.676,27.376Zm0-20.069a9.367,9.367,0,1,1-9.367,9.367A9.378,9.378,0,0,1,16.676,7.307Z"/>
    </g>
  </g>
</svg>
