<svg xmlns="http://www.w3.org/2000/svg" xmlns:xlink="http://www.w3.org/1999/xlink" width="38" height="38" viewBox="0 0 38 38">
  <defs>
    <clipPath id="clip-path">
      <rect id="Rectangle_33" data-name="Rectangle 33" width="38" height="38" transform="translate(361 1324)"/>
    </clipPath>
  </defs>
  <g id="Data" transform="translate(-361 -1324)" clip-path="url(#clip-path)">
    <g id="analytics" transform="translate(360.385 1323.387)">
      <path id="Path_159" data-name="Path 159" d="M22.677.613a.613.613,0,0,0-.613.613V4.9a.613.613,0,0,0,.613.613A11.045,11.045,0,0,1,33.708,16.548a.613.613,0,0,0,.613.613H38a.613.613,0,0,0,.613-.613A15.953,15.953,0,0,0,22.677.613ZM34.919,15.935A12.275,12.275,0,0,0,23.289,4.305V1.854A14.729,14.729,0,0,1,37.373,15.935Z"/>
      <path id="Path_160" data-name="Path 160" d="M32.464,13.947a.613.613,0,0,0-.58-.464.583.583,0,0,0-.6.437L30.15,17.7l-1.357-6.786a.613.613,0,0,0-1.2-.018l-1.731,7.495H24.515V9.193A.613.613,0,0,0,23.9,8.58H20.838a.613.613,0,0,0-.613.613V20.838H18.386V14.1a.613.613,0,0,0-.613-.613H14.709a.613.613,0,0,0-.613.613v6.742H12.258V12.513a10.975,10.975,0,0,1,4.29-.868.613.613,0,0,0,.613-.613V7.355a.613.613,0,0,0-.613-.613,15.889,15.889,0,0,0-4.29.591V1.226a.613.613,0,0,0-.613-.613H8.58a.613.613,0,0,0-.613.613V9.259A15.931,15.931,0,1,0,32.483,22.677a.613.613,0,0,0-.613-.613H28.192a.613.613,0,0,0-.613.613A11.032,11.032,0,1,1,7.967,15.758v5.193a1.839,1.839,0,0,0-1.226,1.726V23.9A1.839,1.839,0,0,0,8.58,25.741H24.515A1.839,1.839,0,0,0,26.354,23.9V22.677a1.839,1.839,0,0,0-1.839-1.839V19.612h1.839a.613.613,0,0,0,.6-.475l1.2-5.194,1.281,6.4a.613.613,0,0,0,.572.49h.029a.613.613,0,0,0,.587-.437l1.2-3.993.685,2.74a.613.613,0,0,0,.594.464h4.29V18.386H33.574Zm-17.142.762h1.839v6.129H15.322Zm-4.29,6.129H9.193v-6.36a11.063,11.063,0,0,1,1.839-1.34Zm-1.839-19h1.839V7.727a15.849,15.849,0,0,0-1.839.82Zm19.6,21.451h2.452A14.727,14.727,0,0,1,17.161,37.37V34.9a12.266,12.266,0,0,0,11.63-11.615ZM15.935,34.9V37.37A14.726,14.726,0,0,1,1.854,23.289H4.321A12.252,12.252,0,0,0,15.935,34.9ZM4.32,22.064H1.854A14.727,14.727,0,0,1,15.935,7.98v2.452A12.265,12.265,0,0,0,4.32,22.064Zm20.808.613V23.9a.613.613,0,0,1-.613.613H8.58a.613.613,0,0,1-.613-.613V22.677a.613.613,0,0,1,.613-.613H24.515A.613.613,0,0,1,25.128,22.677Zm-3.677-1.839V9.806h1.839V20.838Z"/>
    </g>
  </g>
</svg>
