<svg xmlns="http://www.w3.org/2000/svg" xmlns:xlink="http://www.w3.org/1999/xlink" width="32" height="32" viewBox="0 0 32 32">
  <defs>
    <clipPath id="clip-path">
      <rect id="Rectangle_30" data-name="Rectangle 30" width="32" height="32" transform="translate(358 1321)"/>
    </clipPath>
  </defs>
  <g id="Eliminate_Debt" data-name="Eliminate Debt" transform="translate(-358 -1321)" clip-path="url(#clip-path)">
    <g id="Layer_14" data-name="Layer 14" transform="translate(357.486 1320.485)">
      <path id="Path_132" data-name="Path 132" d="M6.709,14.451h4.129v1.032H6.709Z"/>
      <path id="Path_133" data-name="Path 133" d="M30.1,7.627A8.25,8.25,0,0,0,24.039,5.22l-2.7-2.7a1.585,1.585,0,0,0-2.19,0l-.365.365-.365-.365a1.548,1.548,0,0,0-2.19,0l-.884.884a2.064,2.064,0,0,0-1.926-1.337h-3.1a2.058,2.058,0,0,0-1.79,1.056,2.06,2.06,0,0,0-1.822,2.04v3.1A2.043,2.043,0,0,0,7,9.29H6.709a1.548,1.548,0,0,0-1.548,1.548v.516H4.645A1.548,1.548,0,0,0,3.1,12.9v3.819A8.249,8.249,0,0,0,8.39,30.957q.2.009.389.009a8.249,8.249,0,0,0,5.672-14.244V12.9A1.548,1.548,0,0,0,12.9,11.354h-.516v-.516A1.548,1.548,0,0,0,10.838,9.29h-.287a2.043,2.043,0,0,0,.287-1.032V6.193H12.9a1.526,1.526,0,0,0,.413,1.434l.365.365-.365.365a1.548,1.548,0,0,0,0,2.19l2.7,2.7A8.253,8.253,0,1,0,30.1,7.627Zm-.729.73a7.218,7.218,0,0,1,.349,9.838l-1.1-1.1A5.668,5.668,0,0,0,24.35,7.8V6.259a7.225,7.225,0,0,1,5.015,2.1Zm-5.109.464a4.645,4.645,0,1,1-3.284,1.358,4.645,4.645,0,0,1,3.284-1.358ZM9.79,5.009a1.028,1.028,0,0,1-.485-.729A1.028,1.028,0,0,1,9.79,5.009Zm3.628,17.7a4.645,4.645,0,1,1-4.645-4.645,4.645,4.645,0,0,1,4.645,4.645Zm2.58,0a7.22,7.22,0,0,1-6.709,7.2V28.359a5.668,5.668,0,0,0,3.561-9.594l1.084-1.087A7.22,7.22,0,0,1,16,22.708ZM13.418,12.9v3.834l-1.355,1.355A5.673,5.673,0,1,0,8.258,28.359v1.548a7.212,7.212,0,0,1-4.3-12.574.516.516,0,0,0,.171-.384V12.9a.516.516,0,0,1,.516-.516H12.9A.516.516,0,0,1,13.418,12.9Zm-2.064-2.064v.516H6.193v-.516a.516.516,0,0,1,.516-.516h4.129A.516.516,0,0,1,11.354,10.838ZM7.741,8.258v-3.1a1.028,1.028,0,0,1,.53-.9A2.057,2.057,0,0,0,9.806,6.12V8.258a1.032,1.032,0,0,1-2.064,0ZM9.689,3.32a1.021,1.021,0,0,1,.633-.223h3.1a1.032,1.032,0,0,1,1.032,1.032,1.044,1.044,0,0,1-.019.185l-.826.828a1.044,1.044,0,0,1-.188.019h-2.58A2.06,2.06,0,0,0,9.689,3.32ZM14.038,6.9a.516.516,0,0,1,0-.73l.116-.116A2.064,2.064,0,0,0,15.34,4.865l1.616-1.616a.516.516,0,0,1,.73,0l.366.364L14.4,7.262Zm5.319,11.879a7.21,7.21,0,0,1-2.307-5.705.516.516,0,0,0-.15-.393L14.038,9.817a.516.516,0,0,1,0-.73l5.84-5.839a.516.516,0,0,1,.73,0l2.711,2.711V7.874a5.672,5.672,0,1,0,4.569,9.952l1.1,1.1a7.26,7.26,0,0,1-9.626-.146Z"/>
      <path id="Path_134" data-name="Path 134" d="M16.716,7.475h4.128V8.507H16.716Z" transform="translate(-0.15 15.623) rotate(-45)"/>
      <path id="Path_135" data-name="Path 135" d="M8.258,19.1v.516A1.548,1.548,0,0,0,6.709,21.16v.516a1.548,1.548,0,0,0,1.548,1.548v1.548a.516.516,0,0,1-.516-.516H6.709A1.548,1.548,0,0,0,8.258,25.8v.516H9.29V25.8a1.548,1.548,0,0,0,1.548-1.548V23.74A1.548,1.548,0,0,0,9.29,22.192V20.644a.516.516,0,0,1,.516.516v.516h1.032V21.16A1.548,1.548,0,0,0,9.29,19.612V19.1ZM9.806,23.74v.516a.516.516,0,0,1-.516.516V23.224A.516.516,0,0,1,9.806,23.74ZM8.258,22.192a.516.516,0,0,1-.516-.516V21.16a.516.516,0,0,1,.516-.516Z"/>
      <path id="Path_136" data-name="Path 136" d="M21.7,13.831l.364.364a1.585,1.585,0,0,0,2.19,0l1.095,1.095a.528.528,0,0,1-.729,0l-.73.73a1.548,1.548,0,0,0,2.189,0l.365.365.73-.73-.365-.365a1.548,1.548,0,0,0,0-2.189l-.364-.365a1.585,1.585,0,0,0-2.19,0l-1.095-1.095a.529.529,0,0,1,.73,0l.365.365.73-.73-.365-.365a1.586,1.586,0,0,0-2.189,0l-.365-.365-.73.73.365.365a1.548,1.548,0,0,0,0,2.189Zm1.095-.365-.365-.365a.516.516,0,0,1,0-.729l1.095,1.095a.527.527,0,0,1-.73,0Zm2.919,0,.365.365a.516.516,0,0,1,0,.73l-1.095-1.095a.528.528,0,0,1,.73,0Z"/>
    </g>
  </g>
</svg>
