<svg xmlns="http://www.w3.org/2000/svg" xmlns:xlink="http://www.w3.org/1999/xlink" width="32" height="32" viewBox="0 0 32 32">
  <defs>
    <clipPath id="clip-path">
      <rect id="Rectangle_30" data-name="Rectangle 30" width="32" height="32" transform="translate(358 1321)"/>
    </clipPath>
  </defs>
  <g id="Investor" transform="translate(-358 -1321)" clip-path="url(#clip-path)">
    <g id="investor-2" data-name="investor" transform="translate(357.484 1320.484)">
      <path id="Path_163" data-name="Path 163" d="M11.355,18.065a2.584,2.584,0,0,1-2.581-2.581H7.742a3.613,3.613,0,0,0,7.226,0H13.935A2.584,2.584,0,0,1,11.355,18.065Z"/>
      <path id="Path_164" data-name="Path 164" d="M12.387,10.839h3.1v1.032h-3.1Z"/>
      <path id="Path_165" data-name="Path 165" d="M10.839,15.484h1.032V11.355a.516.516,0,0,0-.516-.516H7.226v1.032h3.613Z"/>
      <path id="Path_166" data-name="Path 166" d="M9.806,13.161a.774.774,0,1,0-.774.774A.775.775,0,0,0,9.806,13.161Z"/>
      <path id="Path_167" data-name="Path 167" d="M14.452,13.161a.774.774,0,1,0-.774.774A.775.775,0,0,0,14.452,13.161Z"/>
      <path id="Path_168" data-name="Path 168" d="M31.484,29.514V26.323a5.167,5.167,0,0,0-3.523-4.89l.922-3.226a.516.516,0,0,0-.621-.642l-1.939.484-1.939-.484a.516.516,0,0,0-.621.642l.922,3.226a5.179,5.179,0,0,0-2.551,1.888,3.591,3.591,0,0,0-2.489-2.809l-3.584-1.1a7.2,7.2,0,0,0,2.5-5.007,2.579,2.579,0,0,0,.024-5.06V1.032a.516.516,0,0,0-.516-.516H13.456a9.26,9.26,0,0,0-6.3,2.452L4.911,1.622a.516.516,0,0,0-.782.442V9.342a2.579,2.579,0,0,0,.024,5.06,7.208,7.208,0,0,0,2.5,5.007l-3.584,1.1a3.6,3.6,0,0,0-2.55,3.454V32a.516.516,0,0,0,.516.516H19.1V31.484H1.548V23.965A2.567,2.567,0,0,1,3.37,21.5l3.4-1.046.985,4.434a.516.516,0,0,0,.869.253l.716-.716.889.667-.922,3.688a.516.516,0,0,0,.088.435l1.548,2.065a.516.516,0,0,0,.826,0l1.548-2.065a.515.515,0,0,0,.088-.435l-.922-3.688.889-.667.716.716a.516.516,0,0,0,.869-.253l.985-4.434,3.4,1.046a2.568,2.568,0,0,1,1.822,2.467v5.549a1.545,1.545,0,0,0,.516,3h9.29a1.545,1.545,0,0,0,.516-3ZM19.613,11.871a1.546,1.546,0,0,1-1.032,1.453V10.418A1.545,1.545,0,0,1,19.613,11.871ZM6.96,4.055a.515.515,0,0,0,.631-.077,8.243,8.243,0,0,1,5.865-2.429h4.092V11.26a1.546,1.546,0,0,1-1.032-1.453v-1A2.1,2.1,0,0,0,13.25,7.063l-.29.194a2.939,2.939,0,0,1-3.21,0L9.46,7.063A2.1,2.1,0,0,0,6.194,8.81v1A1.546,1.546,0,0,1,5.161,11.26V2.977ZM3.1,11.871a1.546,1.546,0,0,1,1.032-1.453v2.906A1.545,1.545,0,0,1,3.1,11.871Zm2.065,2.065v-1.6A2.585,2.585,0,0,0,7.226,9.806v-1a1.068,1.068,0,0,1,1.661-.889l.29.194a3.987,3.987,0,0,0,4.355,0l.29-.194a1.069,1.069,0,0,1,1.662.889v1a2.585,2.585,0,0,0,2.065,2.529v1.6a6.194,6.194,0,1,1-12.387,0Zm3.4,9.809L7.77,20.2a7.2,7.2,0,0,0,.642.327l1.261,2.1Zm2.8,6.363-.988-1.317.761-3.044a.458.458,0,0,0,.455,0l.761,3.044Zm0-5.462-1.279-.959.612-.612a.515.515,0,0,0,.077-.631l-.857-1.429a7.24,7.24,0,0,0,2.894,0l-.857,1.429a.517.517,0,0,0,.077.631l.612.612Zm2.8-.9L13.037,22.63l1.261-2.1q.33-.148.642-.327ZM25,18.782l1.2.3a.5.5,0,0,0,.25,0l1.2-.3L26.953,21.2a4.661,4.661,0,0,0-1.261,0Zm5.968,12.7h-9.29a.516.516,0,0,1,0-1.032h2.065V29.419H22.194v-3.1a4.129,4.129,0,0,1,8.258,0v3.1H28.9v1.032h2.065a.516.516,0,0,1,0,1.032Z"/>
      <path id="Path_169" data-name="Path 169" d="M26.839,23.742H25.806v1.032H25.29a.516.516,0,0,0-.365.881l1.183,1.183H24.774v1.032h1.032V28.9h1.032V27.871h.516a.516.516,0,0,0,.365-.881l-1.183-1.183h1.335V24.774H26.839Z"/>
    </g>
  </g>
</svg>
