<svg xmlns="http://www.w3.org/2000/svg" xmlns:xlink="http://www.w3.org/1999/xlink" width="32" height="32" viewBox="0 0 32 32">
  <defs>
    <clipPath id="clip-path">
      <rect id="Rectangle_32" data-name="Rectangle 32" width="32" height="32" transform="translate(363 1326)"/>
    </clipPath>
  </defs>
  <g id="Cash_On_Cash" data-name="Cash On Cash" transform="translate(-363 -1326)" clip-path="url(#clip-path)">
    <g id="Buy" transform="translate(361.933 1324.933)">
      <path id="Path_114" data-name="Path 114" d="M32.533,1.067h-3.2A.533.533,0,0,0,28.8,1.6v.2l-1.137-.569a1.607,1.607,0,0,0-.715-.169H19.132a1.6,1.6,0,0,0-1,.351L15.9,3.2H6.933a.533.533,0,0,0-.533.533v8.533a.533.533,0,0,0,.533.533h16a.533.533,0,0,0,.533-.533V8.239A4.814,4.814,0,0,0,27.7,7.893l.713-.427H28.8V8a.533.533,0,0,0,.533.533h3.2A.533.533,0,0,0,33.067,8V1.6A.533.533,0,0,0,32.533,1.067ZM7.467,11.733V4.267H20.229l-.6.6a1.6,1.6,0,1,0,2.263,2.263l.506-.507v5.113ZM28.263,6.4a.53.53,0,0,0-.271.076l-.838.5a3.749,3.749,0,0,1-3.328.257l-.359-.146V5.554l.677-.677.275.092a3.757,3.757,0,0,0,2.362,0l.587-.2a.534.534,0,0,0-.337-1.013l-.587.2a2.682,2.682,0,0,1-1.686,0l-.587-.2a.533.533,0,0,0-.546.129L22.558,4.955h0L21.139,6.373a.533.533,0,1,1-.754-.754l2.073-2.073a.533.533,0,1,0-.754-.754L21.3,3.2H17.611L18.8,2.25a.533.533,0,0,1,.333-.117h7.817a.543.543,0,0,1,.238.056L28.8,3V6.4ZM32,7.467H29.867V2.133H32Z"/>
      <path id="Path_115" data-name="Path 115" d="M14.933,6.4a.533.533,0,0,1,.533.533h1.067a1.6,1.6,0,0,0-1.067-1.5V4.8H14.4v.631a1.6,1.6,0,0,0,.533,3.1.533.533,0,1,1-.533.533H13.333a1.6,1.6,0,0,0,1.067,1.5V11.2h1.067v-.631a1.6,1.6,0,0,0-.533-3.1.533.533,0,0,1,0-1.067Z"/>
      <path id="Path_116" data-name="Path 116" d="M11.733,7.467H10.667a.533.533,0,0,0,0,1.067h1.067a.533.533,0,0,0,0-1.067Z"/>
      <path id="Path_117" data-name="Path 117" d="M19.2,7.467H18.133a.533.533,0,1,0,0,1.067H19.2a.533.533,0,1,0,0-1.067Z"/>
      <path id="Path_118" data-name="Path 118" d="M23.178,26.546a1.594,1.594,0,0,0-2.187-.587l-3.428,1.973A1.6,1.6,0,0,0,16,26.667H11.893l-.107-.071a5.85,5.85,0,0,0-6.453-.035v-.427A.533.533,0,0,0,4.8,25.6H1.6a.533.533,0,0,0-.533.533v6.4a.533.533,0,0,0,.533.533H4.8a.533.533,0,0,0,.533-.533v-.073l.5.331a1.589,1.589,0,0,0,.894.275h7.92a1.558,1.558,0,0,0,.8-.213l7.147-4.123a1.609,1.609,0,0,0,.8-1.39A1.584,1.584,0,0,0,23.178,26.546ZM4.267,32H2.133V26.667H4.267Zm17.792-4.2L14.9,31.932a.5.5,0,0,1-.259.068H6.725a.521.521,0,0,1-.3-.092l-1.095-.727V27.733a.533.533,0,0,0,.3-.089l.242-.16a4.787,4.787,0,0,1,5.325,0l.242.16a.533.533,0,0,0,.3.089H16A.533.533,0,0,1,16,28.8H12.8a.533.533,0,1,0,0,1.067H16a1.587,1.587,0,0,0,1.057-.407L21.53,26.88a.516.516,0,0,1,.4-.053.53.53,0,0,1,.326.252.515.515,0,0,1,.072.26.539.539,0,0,1-.267.466Z"/>
      <path id="Path_119" data-name="Path 119" d="M21.867,14.933H8a.533.533,0,0,0-.533.533v9.6A.533.533,0,0,0,8,25.6H21.867a.533.533,0,0,0,.533-.533v-9.6A.533.533,0,0,0,21.867,14.933ZM15.467,16v2.133H14.4V16Zm5.867,8.533H8.533V16h4.8v2.667a.533.533,0,0,0,.533.533H16a.533.533,0,0,0,.533-.533V16h4.8Z"/>
      <path id="Path_120" data-name="Path 120" d="M11.733,21.333H9.6a.533.533,0,0,0,0,1.067h2.133a.533.533,0,0,0,0-1.067Z"/>
      <path id="Path_121" data-name="Path 121" d="M13.867,21.333h-.533a.533.533,0,1,0,0,1.067h.533a.533.533,0,1,0,0-1.067Z"/>
      <path id="Path_122" data-name="Path 122" d="M11.733,22.933H9.6A.533.533,0,0,0,9.6,24h2.133a.533.533,0,0,0,0-1.067Z"/>
      <path id="Path_123" data-name="Path 123" d="M13.867,22.933h-.533a.533.533,0,1,0,0,1.067h.533a.533.533,0,1,0,0-1.067Z"/>
    </g>
  </g>
</svg>
