<svg xmlns="http://www.w3.org/2000/svg" xmlns:xlink="http://www.w3.org/1999/xlink" width="32" height="32" viewBox="0 0 32 32">
  <defs>
    <clipPath id="clip-path">
      <rect id="Rectangle_30" data-name="Rectangle 30" width="32" height="32" transform="translate(358 1321)"/>
    </clipPath>
  </defs>
  <g id="Home_Owner" data-name="Home Owner" transform="translate(-358 -1321)" clip-path="url(#clip-path)">
    <g id="house-owner" transform="translate(358 1321)">
      <g id="Group_34" data-name="Group 34">
        <path id="Path_170" data-name="Path 170" d="M14.866,14.022a.469.469,0,0,0,.237-.907,2.241,2.241,0,0,0-1.316,0,.469.469,0,0,0,.237.907A1.34,1.34,0,0,1,14.866,14.022Z"/>
        <path id="Path_171" data-name="Path 171" d="M17.134,14.022a1.34,1.34,0,0,1,.842,0,.469.469,0,0,0,.237-.907,2.241,2.241,0,0,0-1.316,0,.469.469,0,0,0,.237.907Z"/>
        <path id="Path_172" data-name="Path 172" d="M14.984,18.318a2.1,2.1,0,0,0,2.032,0,.469.469,0,0,0-.456-.819,1.175,1.175,0,0,1-1.12,0,.469.469,0,0,0-.456.819Z"/>
        <path id="Path_173" data-name="Path 173" d="M14.914,15.279v-.251a.469.469,0,0,0-.938,0v.251a.469.469,0,1,0,.938,0Z"/>
        <path id="Path_174" data-name="Path 174" d="M17.555,14.559a.469.469,0,0,0-.469.469v.251a.469.469,0,1,0,.938,0v-.251A.469.469,0,0,0,17.555,14.559Z"/>
        <path id="Path_175" data-name="Path 175" d="M30.594,28.125h-.906V14.671l.054.041a1.406,1.406,0,0,0,1.705-2.237L28.053,9.888a.469.469,0,1,0-.568.746l3.393,2.587a.469.469,0,1,1-.568.745L16.284,3.274a.469.469,0,0,0-.568,0L1.691,13.966a.469.469,0,0,1-.568-.746L15.716,2.1a.47.47,0,0,1,.568,0l9.461,7.213a.469.469,0,1,0,.568-.746L16.853,1.349a1.41,1.41,0,0,0-1.705,0l-5.3,4.043V4.086a.719.719,0,0,0,.625-.712V2A.72.72,0,0,0,9.75,1.28H5.25A.72.72,0,0,0,4.531,2V3.374a.719.719,0,0,0,.625.712v4.88l-4.6,3.509a1.406,1.406,0,0,0,.665,2.512A1.423,1.423,0,0,0,1.409,15a1.4,1.4,0,0,0,.85-.288l.054-.041V24.1a.469.469,0,0,0,.938,0v-.632H6.156A.845.845,0,0,0,7,22.625v-5.75a.845.845,0,0,0-.844-.844H3.25V13.956L16,4.236l12.75,9.72v2.075H25.844a.845.845,0,0,0-.844.844v5.75a.845.845,0,0,0,.844.844H28.75v4.656H22.737v-2.64a4.228,4.228,0,0,0-3.872-4.226c-.016-.013-.033-.026-.051-.038l-1.092-.741v-.208a4.527,4.527,0,0,0,2.629-3.016,1.434,1.434,0,0,0,.371.05c.9,0,1.559-.94,1.559-2.234a1.826,1.826,0,0,0-1.237-1.98c.161-.645.39-1.607.72-3.049a1.293,1.293,0,0,0-.98-1.551c-1.675-.373-4.834-.91-7.176-.318a3.481,3.481,0,0,0-2.677,2.859A5.873,5.873,0,0,0,10.9,13.1v.011a1.848,1.848,0,0,0-1.178,1.965c0,1.295.656,2.234,1.559,2.234a1.435,1.435,0,0,0,.366-.049,4.515,4.515,0,0,0,2.634,3.023v.2l-1.092.741c-.018.012-.035.025-.051.038a4.228,4.228,0,0,0-3.872,4.226v2.64H3.25V26.263a.469.469,0,0,0-.938,0v1.862H1.406a1.406,1.406,0,0,0,0,2.813H24.291a.469.469,0,0,0,0-.938H1.406a.469.469,0,1,1,0-.937H30.594a.469.469,0,1,1,0,.938H26.512a.469.469,0,1,0,0,.938h4.082a1.406,1.406,0,0,0,0-2.813ZM5.469,2.218H9.531v.938H5.469Zm.625,1.875H8.906V6.107L6.094,8.251ZM6.063,16.968v5.563H3.25V16.968Zm19.875,5.563V16.968H28.75v5.563ZM16,22.625a2.278,2.278,0,0,1-.785-1.67s0-.005,0-.008v-.4a4.466,4.466,0,0,0,1.57,0v.4s0,.005,0,.008A2.279,2.279,0,0,1,16,22.625Zm-.759.585a.8.8,0,0,1-.657.135c-.209-.073-.533-.547-.77-1.417l.538-.365A3.085,3.085,0,0,0,15.241,23.21Zm2.407-1.646.538.365c-.237.87-.561,1.344-.77,1.417a.812.812,0,0,1-.657-.136,3.084,3.084,0,0,0,.889-1.646Zm3.7-6.49c0,.7-.285,1.3-.621,1.3a.512.512,0,0,1-.228-.055c0-.068.005-.135.005-.2v-.827a4.215,4.215,0,0,1,.161-.834A2.831,2.831,0,0,0,20.808,14c.509.082.536.9.536,1.07ZM13.838,9.084c2.235-.565,5.46.038,6.743.324a.356.356,0,0,1,.27.427c-.416,1.816-.694,2.961-.86,3.6,0,.006,0,.012,0,.018-.092.35-.149.543-.175.6a1.822,1.822,0,0,0-.1.308,1.371,1.371,0,0,1-.1-.115c.1-1.081.095-2.431-.5-2.959a.941.941,0,0,0-.857-.207c-.254.058-.475.113-.669.162a5.4,5.4,0,0,1-3.23,0c-.194-.048-.415-.1-.669-.162a.94.94,0,0,0-.857.207c-.6.529-.605,1.887-.5,2.969a1.252,1.252,0,0,1-.092.113,2.562,2.562,0,0,0-.115-.317l-.048-.1a2.014,2.014,0,0,1-.188-.521v0a3.047,3.047,0,0,1-.051-.415.486.486,0,0,0-.008-.061c-.027-.139-.581-3.213,2.016-3.87ZM11.278,16.37c-.337,0-.621-.594-.621-1.3,0-.157.023-.865.425-1.038.047.126.1.231.143.326l.042.089a5.994,5.994,0,0,1,.233.854v.822c0,.063,0,.126,0,.189a.514.514,0,0,1-.227.055Zm1.16-.244v-.649c.878-.747.844-1.077.829-1.223a3.875,3.875,0,0,1,.177-2.261l.028,0c.246.056.462.11.652.158a6.3,6.3,0,0,0,3.684,0c.19-.047.406-.1.652-.158a.156.156,0,0,1,.028,0,3.875,3.875,0,0,1,.177,2.261c-.016.149-.051.486.9,1.236v.621a3.57,3.57,0,0,1-4.675,3.4h0a3.559,3.559,0,0,1-2.447-3.379Zm-2.238,12v-2.64a3.293,3.293,0,0,1,2.725-3.254c.228.813.638,1.749,1.349,2a1.426,1.426,0,0,0,.475.081A2.129,2.129,0,0,0,16,23.821a2.128,2.128,0,0,0,1.251.49,1.427,1.427,0,0,0,.475-.081c.711-.249,1.121-1.186,1.348-2A3.293,3.293,0,0,1,21.8,25.485v2.64Z"/>
      </g>
    </g>
  </g>
</svg>
