<svg xmlns="http://www.w3.org/2000/svg" xmlns:xlink="http://www.w3.org/1999/xlink" width="32" height="32" viewBox="0 0 32 32">
  <defs>
    <clipPath id="clip-path">
      <rect id="Rectangle_30" data-name="Rectangle 30" width="32" height="32" transform="translate(358 1321)"/>
    </clipPath>
  </defs>
  <g id="Purchase" transform="translate(-358 -1321)" clip-path="url(#clip-path)">
    <g id="purchasing" transform="translate(357.488 1320.492)">
      <path id="Path_140" data-name="Path 140" d="M29.928,25.284H18.008a1.538,1.538,0,0,0-.319-.625l-2.85-3.322a.516.516,0,0,0-.392-.181H8.772V20.64a.516.516,0,0,0-.516-.516H1.032a.516.516,0,0,0-.516.516V31.992a.516.516,0,0,0,.516.516H5.16a.516.516,0,0,0,.516-.516v-.516h2.58a.516.516,0,0,0,.516-.516v-.516h3.457L15.2,32.421a.516.516,0,0,0,.285.087.535.535,0,0,0,.11-.012L32.1,28.884a.516.516,0,0,0,.406-.5v-.516a2.583,2.583,0,0,0-2.58-2.58ZM4.644,31.476h-3.1V21.156h3.1Zm3.1-1.032H5.676V21.156H7.74Zm23.736-2.477L15.583,31.441,12.67,29.5a.519.519,0,0,0-.286-.087H8.772V22.188h5.439L16.9,25.33a.521.521,0,0,1,.124.336v.65a.516.516,0,0,1-.516.516h-.6a.516.516,0,0,1-.365-.151L13.265,24.4l-.73.73,2.278,2.278a1.537,1.537,0,0,0,1.094.454h.6a1.548,1.548,0,0,0,1.548-1.548H29.928a1.548,1.548,0,0,1,1.548,1.548Z"/>
      <path id="Path_141" data-name="Path 141" d="M31.992,7.74H28.005a4.128,4.128,0,1,0-5.443,0H18.717a4.128,4.128,0,1,0-5.443,0H9.288a.516.516,0,0,0-.516.516V19.608a.516.516,0,0,0,.516.516h22.7a.516.516,0,0,0,.516-.516V8.256A.516.516,0,0,0,31.992,7.74Zm-9.8-3.1a3.1,3.1,0,1,1,3.1,3.1A3.1,3.1,0,0,1,22.188,4.644Zm-9.288,0A3.1,3.1,0,1,1,16,7.74,3.1,3.1,0,0,1,12.9,4.644ZM31.476,19.092H9.8V8.772H31.476Z"/>
      <path id="Path_142" data-name="Path 142" d="M20.64,9.8a4.128,4.128,0,1,0,4.128,4.128A4.128,4.128,0,0,0,20.64,9.8Zm0,7.224a3.1,3.1,0,1,1,3.1-3.1A3.1,3.1,0,0,1,20.64,17.028Z"/>
      <path id="Path_143" data-name="Path 143" d="M20.382,12.9H20.9a.258.258,0,0,1,.258.258h1.032a1.29,1.29,0,0,0-1.032-1.264v-.542H20.124v.542a1.29,1.29,0,0,0,.258,2.554H20.9a.258.258,0,1,1,0,.516h-.516a.258.258,0,0,1-.258-.258H19.092a1.29,1.29,0,0,0,1.032,1.264v.542h1.032V15.97a1.29,1.29,0,0,0-.258-2.554h-.516a.258.258,0,0,1,0-.516Z"/>
      <path id="Path_144" data-name="Path 144" d="M15.738,3.612h.516a.258.258,0,0,1,.258.258h1.032a1.29,1.29,0,0,0-1.032-1.264V2.064H15.48v.542a1.29,1.29,0,0,0,.258,2.554h.516a.258.258,0,1,1,0,.516h-.516a.258.258,0,0,1-.258-.258H14.448A1.29,1.29,0,0,0,15.48,6.682v.542h1.032V6.682a1.29,1.29,0,0,0-.258-2.554h-.516a.258.258,0,0,1,0-.516Z"/>
      <path id="Path_145" data-name="Path 145" d="M25.026,3.612h.516a.258.258,0,0,1,.258.258h1.032A1.29,1.29,0,0,0,25.8,2.606V2.064H24.768v.542a1.29,1.29,0,0,0,.258,2.554h.516a.258.258,0,1,1,0,.516h-.516a.258.258,0,0,1-.258-.258H23.736a1.29,1.29,0,0,0,1.032,1.264v.542H25.8V6.682a1.29,1.29,0,0,0-.258-2.554h-.516a.258.258,0,1,1,0-.516Z"/>
      <path id="Path_146" data-name="Path 146" d="M30.444,17.544V10.32a.516.516,0,0,0-.516-.516H25.8v1.032h3.612v6.192H25.8V18.06h4.128A.516.516,0,0,0,30.444,17.544Z"/>
      <path id="Path_147" data-name="Path 147" d="M10.836,10.32v7.224a.516.516,0,0,0,.516.516H15.48V17.028H11.868V10.836H15.48V9.8H11.352A.516.516,0,0,0,10.836,10.32Z"/>
      <rect id="Rectangle_60" data-name="Rectangle 60" width="2.064" height="1.032" transform="translate(25.8 13.416)"/>
      <rect id="Rectangle_61" data-name="Rectangle 61" width="2.064" height="1.032" transform="translate(13.416 13.416)"/>
    </g>
  </g>
</svg>
