<svg xmlns="http://www.w3.org/2000/svg" xmlns:xlink="http://www.w3.org/1999/xlink" width="32" height="32" viewBox="0 0 32 32">
  <defs>
    <clipPath id="clip-path">
      <rect id="Rectangle_30" data-name="Rectangle 30" width="32" height="32" transform="translate(358 1321)"/>
    </clipPath>
  </defs>
  <g id="Questions_" data-name="Questions?" transform="translate(-358 -1321)" clip-path="url(#clip-path)">
    <g id="help" transform="translate(357.484 1320.484)">
      <path id="Path_150" data-name="Path 150" d="M16.516.516a16,16,0,1,0,16,16A16.018,16.018,0,0,0,16.516.516Zm0,30.968A14.968,14.968,0,1,1,31.484,16.516,14.984,14.984,0,0,1,16.516,31.484Z"/>
      <path id="Path_151" data-name="Path 151" d="M16.516,2.581A13.935,13.935,0,1,0,30.452,16.516,13.951,13.951,0,0,0,16.516,2.581Zm0,26.839a12.9,12.9,0,1,1,12.9-12.9A12.918,12.918,0,0,1,16.516,29.419Z"/>
      <path id="Path_152" data-name="Path 152" d="M16.791,4.651a6.71,6.71,0,0,0-6.985,6.7c0,.225.011.447.033.666a1.546,1.546,0,0,0,1.544,1.4,1.562,1.562,0,0,0,1.16-.516,1.506,1.506,0,0,0,.381-1.163h0a3.692,3.692,0,0,1-.012-.623,3.618,3.618,0,1,1,7.01,1.49,3.584,3.584,0,0,1-2.975,2.338A2.285,2.285,0,0,0,14.968,17.2v4.48a.516.516,0,0,0,.516.516h2.065a.516.516,0,0,0,.516-.516l.016-3.8a6.711,6.711,0,0,0-1.289-13.23ZM17.84,16.877a1.039,1.039,0,0,0-.808,1.006v3.278H16V17.2a1.261,1.261,0,0,1,1.124-1.236A4.605,4.605,0,0,0,20.9,12.932a4.689,4.689,0,0,0-.682-4.384,4.64,4.64,0,0,0-3.939-1.832A4.647,4.647,0,0,0,11.9,11.849a.468.468,0,0,1-.121.364.529.529,0,0,1-.392.174.517.517,0,0,1-.517-.469q-.028-.278-.028-.564A5.678,5.678,0,0,1,16.75,5.682a5.678,5.678,0,0,1,1.09,11.195Z"/>
      <path id="Path_153" data-name="Path 153" d="M17.548,23.742H15.484a.516.516,0,0,0-.516.516v3.1a.516.516,0,0,0,.516.516h2.065a.516.516,0,0,0,.516-.516v-3.1A.516.516,0,0,0,17.548,23.742Zm-.516,3.1H16V24.774h1.032Z"/>
    </g>
  </g>
</svg>
