<svg xmlns="http://www.w3.org/2000/svg" xmlns:xlink="http://www.w3.org/1999/xlink" width="32" height="32" viewBox="0 0 32 32">
  <defs>
    <clipPath id="clip-path">
      <rect id="Rectangle_30" data-name="Rectangle 30" width="32" height="32" transform="translate(358 1321)"/>
    </clipPath>
  </defs>
  <g id="Home_Renovation" data-name="Home Renovation" transform="translate(-358 -1321)" clip-path="url(#clip-path)">
    <g id="construction" transform="translate(357.484 1320.484)">
      <path id="Path_130" data-name="Path 130" d="M32,28.387H27.871V17.419l.723.542a.516.516,0,0,0,.826-.413V14.968a.516.516,0,0,0-.206-.413l-1.858-1.394v-4.9a.516.516,0,0,0-.516-.516h-3.1a.516.516,0,0,0-.516.516v1.806l-6.4-4.8a.516.516,0,0,0-.619,0l-3.533,2.65L10.242,5.482a1.523,1.523,0,0,1,.877-.143l1.533.219a.516.516,0,0,0,.438-.877L9.85,1.442a3.159,3.159,0,0,0-4.468,0L3.237,3.587a.516.516,0,0,0,0,.73.516.516,0,0,1-.73.729.516.516,0,0,0-.73,0L.682,6.142a.516.516,0,0,0,0,.73l3.65,3.65a.516.516,0,0,0,.73,0L6.157,9.427a.516.516,0,0,0,0-.73.516.516,0,1,1,.73-.73.516.516,0,0,0,.73,0L9.755,10.1,3.819,14.555a.516.516,0,0,0-.206.413v2.581a.516.516,0,0,0,.826.413l.723-.542V28.387H1.032a.516.516,0,0,0-.516.516V32a.516.516,0,0,0,.516.516H32A.516.516,0,0,0,32.516,32V28.9A.516.516,0,0,0,32,28.387ZM12.553,12.9H11.182l.783-.587ZM9.694,8.584l1.093-1.1,7.048,7.047L16.741,15.63Zm5.191,1.542L16.516,8.9l5.334,4H17.662ZM18.93,14.9a.516.516,0,0,0,0-.73l-.235-.235h4.531L25.979,16H17.831Zm5.328-6.126h2.065v3.613l-2.065-1.548ZM16.516,6.323l11.871,8.9v1.29L16.826,7.845a.516.516,0,0,0-.619,0L14.148,9.389l-.738-.738Zm-9.327.612A1.548,1.548,0,0,0,5.125,9L4.7,9.426l-2.92-2.92L2.2,6.079A1.549,1.549,0,0,0,4.269,4.014L6.113,2.171a2.127,2.127,0,0,1,3.008,0l2.145,2.145a2.59,2.59,0,0,0-2.189.73Zm2.252-.792.619.619-1.1,1.1-.619-.619Zm-4.8,9.084,5.846-4.387.738.738-6.584,4.94Zm5.161-1.29h3.779L15.65,16h-8.6Zm-3.613,3.1H26.839V28.387H15.484V18.581a.516.516,0,0,0-.516-.516H7.742a.516.516,0,0,0-.516.516v9.806H6.194Zm8.258,11.355H8.258V19.1h6.194Zm17.032,3.1H1.548V29.419H31.484Z"/>
      <path id="Path_131" data-name="Path 131" d="M17.032,25.29H25.29a.516.516,0,0,0,.516-.516V18.581a.516.516,0,0,0-.516-.516H17.032a.516.516,0,0,0-.516.516v6.194A.516.516,0,0,0,17.032,25.29Zm4.129-1.032.929-1.239a.516.516,0,0,0,.1-.31h1.394l1.187.792v.756Zm3.613-2-.746-.5a.519.519,0,0,0-.286-.087H22.194v-.516a.516.516,0,0,0-.413-.506l-1.918-.384.586-1.175h4.326ZM17.548,19.1h1.746l-.662,1.318a.516.516,0,0,0,.361.737l2.168.433v.954l-1.29,1.72H17.548Z"/>
      <rect id="Rectangle_59" data-name="Rectangle 59" width="1.032" height="1.032" transform="translate(12.387 23.226)"/>
    </g>
  </g>
</svg>
