<svg xmlns="http://www.w3.org/2000/svg" xmlns:xlink="http://www.w3.org/1999/xlink" width="38" height="38" viewBox="0 0 38 38">
  <defs>
    <clipPath id="clip-path">
      <rect id="Rectangle_33" data-name="Rectangle 33" width="38" height="38" transform="translate(361 1324)"/>
    </clipPath>
  </defs>
  <g id="Reports" transform="translate(-361 -1324)" clip-path="url(#clip-path)">
    <g id="presentation" transform="translate(360.396 1323.392)">
      <path id="Path_161" data-name="Path 161" d="M37.991.613H12.255a.613.613,0,0,0-.613.613V3.064H8.579a.613.613,0,0,0-.613.613v10.6a9.191,9.191,0,0,0,0,18.015v5.7a.613.613,0,0,0,.613.613H34.314a.613.613,0,0,0,.613-.613V36.153h3.064a.613.613,0,0,0,.613-.613V1.226A.613.613,0,0,0,37.991.613ZM1.838,23.285a7.966,7.966,0,1,1,13.9,5.291,6.161,6.161,0,0,0-2.512-3.628,4.9,4.9,0,1,0-6.848,0A6.162,6.162,0,0,0,3.87,28.576a7.923,7.923,0,0,1-2.032-5.291Zm6.487-1.226a2.687,2.687,0,0,0,1.913-.792,1.467,1.467,0,0,1,1.045-.433h2.145a3.673,3.673,0,1,1-7.243,1.226ZM6.18,20.834a3.67,3.67,0,0,1,6.8-1.226h-1.7A2.687,2.687,0,0,0,9.37,20.4a1.467,1.467,0,0,1-1.045.433Zm3.011,5.473a4.461,4.461,0,0,0,1.226,0V27.32l-.613.613-.613-.613Zm-1.746-.565a4.935,4.935,0,0,0,.521.245v1.588a.613.613,0,0,0,.179.433l1.226,1.226a.613.613,0,0,0,.866,0l1.226-1.226a.613.613,0,0,0,.18-.433V25.988a4.935,4.935,0,0,0,.521-.245,4.915,4.915,0,0,1,2.512,3.834,7.915,7.915,0,0,1-9.739,0,4.916,4.916,0,0,1,2.509-3.835Zm15.227,4.284H21.446V23.9h1.226ZM28.8,31.25v1.226H14.093V31.407c.094-.05.184-.1.276-.157Zm-1.226-1.226H26.348V22.672h1.226ZM11.642,32.292a9.063,9.063,0,0,0,1.226-.351v1.148a.613.613,0,0,0,.613.613H29.412a.613.613,0,0,0,.613-.613V30.638a.613.613,0,0,0-.613-.613H28.8V22.059a.613.613,0,0,0-.613-.613H25.736a.613.613,0,0,0-.613.613v7.966H23.9v-6.74a.613.613,0,0,0-.613-.613H20.834a.613.613,0,0,0-.613.613v6.74H16.032a9.112,9.112,0,0,0,2.427-9.8H31.25V34.927H11.642ZM9.191,37.378V32.445c.2.013.406.031.613.031s.409-.018.613-.031v3.1a.613.613,0,0,0,.613.613H31.863a.613.613,0,0,0,.613-.613V19.608A.613.613,0,0,0,31.863,19H17.927a9.2,9.2,0,0,0-8.123-4.9c-.207,0-.409.018-.613.031V4.289h19v4.9A.613.613,0,0,0,28.8,9.8h4.9V37.378ZM29.412,5.156l3.423,3.423H29.412Zm7.966,29.771H34.927V9.191a.613.613,0,0,0-.179-.433L29.233,3.243a.613.613,0,0,0-.433-.18H12.868V1.838h24.51Z"/>
      <path id="Path_162" data-name="Path 162" d="M22.059,6.776V6.128a.613.613,0,0,0-.613-.613,6.748,6.748,0,0,0-6.74,6.74.613.613,0,0,0,.613.613h.649a5.515,5.515,0,1,0,6.091-6.091Zm-1.226,0v4.866H15.965a5.527,5.527,0,0,1,4.868-4.868Zm.613,9.768a4.289,4.289,0,0,1-4.24-3.677h4.24a.613.613,0,0,0,.613-.613V8.015a4.289,4.289,0,0,1-.613,8.53Z"/>
    </g>
  </g>
</svg>
