<svg xmlns="http://www.w3.org/2000/svg" xmlns:xlink="http://www.w3.org/1999/xlink" width="32" height="32" viewBox="0 0 32 32">
  <defs>
    <clipPath id="clip-path">
      <rect id="Rectangle_30" data-name="Rectangle 30" width="32" height="32" transform="translate(358 1321)"/>
    </clipPath>
  </defs>
  <g id="Savings" transform="translate(-358 -1321)" clip-path="url(#clip-path)">
    <g id="saving" transform="translate(357.494 1320.607)">
      <path id="Path_148" data-name="Path 148" d="M31.879,28.28h-3.6V25.709a.514.514,0,0,0-.514-.514H24.635a9.467,9.467,0,0,0,1.209-2.571h.379a2.571,2.571,0,0,0,0-5.142h-.384q-.1-.329-.22-.65a8.278,8.278,0,1,0-9.593-6.959,13.658,13.658,0,0,0-1.629-.1,13.139,13.139,0,0,0-6.126,1.488A7.555,7.555,0,0,0,3.776,9.769H3.6a.514.514,0,0,0-.514.514v.176a7.466,7.466,0,0,0,1.266,4.165,9.817,9.817,0,0,0-.793,1.315H1.028a.514.514,0,0,0-.514.514v7.2a.514.514,0,0,0,.514.514H3.558a10.952,10.952,0,0,0,4.747,4.7l.441,3.085a.514.514,0,0,0,.509.441H12.34a.514.514,0,0,0,.509-.441l.24-1.678a13.565,13.565,0,0,0,1.822.04v1.565a.514.514,0,0,0,.514.514H31.879a.514.514,0,0,0,.514-.514V28.794A.514.514,0,0,0,31.879,28.28Zm-4.628,0H26.223V27.252H25.195V28.28H24.167V27.252H23.138V28.28H22.11V27.252H21.081V28.28H20.053V26.223h7.2Zm-1.028-9.769a1.543,1.543,0,1,1,0,3.085H26.09a8.623,8.623,0,0,0-.011-3.085Zm-7.2-9.769a5.142,5.142,0,1,1,5.142,5.142,5.142,5.142,0,0,1-5.142-5.142Zm5.656,6.144a6.138,6.138,0,0,0,3.466-1.437l.727.727a7.157,7.157,0,0,1-4.193,1.738Zm4.193-2.164a6.138,6.138,0,0,0,1.437-3.466h1.028A7.157,7.157,0,0,1,29.6,13.448Zm1.437-4.494a6.138,6.138,0,0,0-1.437-3.466l.727-.727a7.157,7.157,0,0,1,1.738,4.193ZM28.147,4.034A6.138,6.138,0,0,0,24.681,2.6V1.569a7.157,7.157,0,0,1,4.193,1.738ZM23.652,2.6a6.138,6.138,0,0,0-3.466,1.437l-.727-.727a7.157,7.157,0,0,1,4.193-1.738ZM19.459,4.761a6.138,6.138,0,0,0-1.437,3.466H16.994a7.157,7.157,0,0,1,1.738-4.193ZM18.023,9.255a6.138,6.138,0,0,0,1.437,3.466l-.727.727a7.157,7.157,0,0,1-1.738-4.193Zm2.164,4.193a6.138,6.138,0,0,0,3.466,1.437v1.028a7.157,7.157,0,0,1-4.193-1.738Zm-3.938-2.515a8.12,8.12,0,0,0,.3.893h-4.2v-.854a12.422,12.422,0,0,1,3.905-.039ZM12.718,29.2a.514.514,0,0,0-.579.463l-.244,1.706H9.7l-.415-2.908a.514.514,0,0,0-.281-.388,9.9,9.9,0,0,1-4.657-4.632.514.514,0,0,0-.467-.3H1.543v-6.17H3.881a.514.514,0,0,0,.467-.3,8.844,8.844,0,0,1,1.043-1.719.514.514,0,0,0,.007-.621,6.465,6.465,0,0,1-1.276-3.521A6.523,6.523,0,0,1,7.9,12.268a.514.514,0,0,0,.578.051,11.672,11.672,0,0,1,2.839-1.136V12.34a.514.514,0,0,0,.514.514h5.227a8.227,8.227,0,0,0,7.114,4.113c.133,0,.262-.014.394-.02a8.038,8.038,0,0,1,.635,3.105,8.288,8.288,0,0,1-1.829,5.142H19.539a.514.514,0,0,0-.514.514V28.28h-3.6a.514.514,0,0,0-.514.514v.5a12.711,12.711,0,0,1-2.193-.1Zm3.222.112h7.2v2.057H22.11V30.337H21.081v1.028H20.053V30.337H19.025v1.028H18V30.337H16.968v1.028H15.94Zm15.425,2.057H30.337V30.337H29.308v1.028H28.28V30.337H27.252v1.028H26.223V30.337H25.195v1.028H24.167V29.308h7.2Z"/>
      <path id="Path_149" data-name="Path 149" d="M24.167,11.312a1.028,1.028,0,0,1-1.028-1.028H22.11a2.057,2.057,0,0,0,1.543,1.984v1.1h1.028v-1.1a2.053,2.053,0,0,0-.514-4.04A1.028,1.028,0,1,1,25.195,7.2h1.028a2.057,2.057,0,0,0-1.543-1.984v-1.1H23.652v1.1a2.053,2.053,0,0,0,.514,4.04,1.028,1.028,0,1,1,0,2.057Z"/>
    </g>
  </g>
</svg>
