<svg xmlns="http://www.w3.org/2000/svg" xmlns:xlink="http://www.w3.org/1999/xlink" width="38" height="38" viewBox="0 0 38 38">
  <defs>
    <clipPath id="clip-path">
      <rect id="Rectangle_33" data-name="Rectangle 33" width="38" height="38" transform="translate(361 1324)"/>
    </clipPath>
  </defs>
  <g id="Search_Easily" data-name="Search Easily" transform="translate(-361 -1324)" clip-path="url(#clip-path)">
    <g id="Layer_14" data-name="Layer 14" transform="translate(360.387 1323.387)">
      <rect id="Rectangle_62" data-name="Rectangle 62" width="1.226" height="2.452" transform="translate(12.871 23.29)"/>
      <path id="Path_154" data-name="Path 154" d="M15.323,16.548a3.677,3.677,0,1,0-3.677-3.677,3.677,3.677,0,0,0,3.677,3.677Zm0-6.129a2.452,2.452,0,1,1-2.452,2.452A2.452,2.452,0,0,1,15.323,10.419Z"/>
      <path id="Path_155" data-name="Path 155" d="M38.433,37.567l-5.083-5.083.18-.18a.613.613,0,0,0,0-.867l-1.777-1.774a7.936,7.936,0,0,0-3.559-10.37V18.028l.792.792a.613.613,0,0,0,1.046-.433V15.323a.613.613,0,0,0-.179-.433L15.756.792a.613.613,0,0,0-.867,0l-14.1,14.1a.613.613,0,0,0-.18.433v3.065a.613.613,0,0,0,1.046.433l.792-.792v9.553H1.839a.613.613,0,0,0-.613.613v2.452a.613.613,0,0,0,.613.613h16.41a7.922,7.922,0,0,0,9.577,2.336L29.6,35.372a.613.613,0,0,0,.867,0l.178-.183,3.244,3.244a.613.613,0,0,0,.433.18H38a.613.613,0,0,0,.433-1.046ZM1.839,15.576,15.323,2.092,28.807,15.576v1.331L15.756,3.857a.613.613,0,0,0-.867,0L1.839,16.908ZM3.677,16.8,15.323,5.157,26.968,16.8v1.975A7.927,7.927,0,0,0,21.452,19v-.613a.613.613,0,0,0-.613-.613H9.806a.613.613,0,0,0-.613.613v2.452a.613.613,0,0,0,.613.613h.613v6.129H3.677ZM16.653,27.581H11.645V21.452h6.6a7.791,7.791,0,0,0-1.594,6.129Zm2.78-7.355H10.419V19h9.806v.652a8.067,8.067,0,0,0-.794.574ZM2.452,30.032V28.807H16.938a7.89,7.89,0,0,0,.517,1.226Zm15.323-3.677A6.742,6.742,0,1,1,24.516,33.1a6.742,6.742,0,0,1-6.742-6.742ZM28.94,32.974a8.015,8.015,0,0,0,2.2-2.2l1.095,1.092-2.2,2.2Zm5.639,4.413-3.065-3.065.97-.972,4.037,4.037Z"/>
      <path id="Path_156" data-name="Path 156" d="M24.516,20.839a5.516,5.516,0,1,0,5.516,5.516,5.516,5.516,0,0,0-5.516-5.516Zm0,9.806a4.29,4.29,0,1,1,4.29-4.29,4.29,4.29,0,0,1-4.29,4.29Z"/>
      <path id="Path_157" data-name="Path 157" d="M24.516,23.29v1.226a1.839,1.839,0,0,1,1.839,1.839h1.226a3.068,3.068,0,0,0-3.065-3.065Z"/>
      <path id="Path_158" data-name="Path 158" d="M22.677,26.355H21.452a3.068,3.068,0,0,0,3.065,3.065V28.194A1.839,1.839,0,0,1,22.677,26.355Z"/>
    </g>
  </g>
</svg>
