<svg xmlns="http://www.w3.org/2000/svg" xmlns:xlink="http://www.w3.org/1999/xlink" width="32" height="32" viewBox="0 0 32 32">
  <defs>
    <clipPath id="clip-path">
      <rect id="Rectangle_33" data-name="Rectangle 33" width="32" height="32" transform="translate(363 1326)"/>
    </clipPath>
  </defs>
  <g id="Gross_Yield" data-name="Gross Yield" transform="translate(-363 -1326)" clip-path="url(#clip-path)">
    <g id="sales" transform="translate(364.502 1326)">
      <path id="Path_124" data-name="Path 124" d="M28.294,16.718a2.394,2.394,0,0,0-3.17-.094V8.918a.469.469,0,1,0-.937,0v8.366a25.548,25.548,0,0,1-3.2,2.193V5.6a1.171,1.171,0,0,1,1.17-1.17h.856a1.171,1.171,0,0,1,1.17,1.17V7a.469.469,0,1,0,.937,0V5.6a2.109,2.109,0,0,0-2.107-2.107h-.856A2.109,2.109,0,0,0,20.053,5.6V19.848a4.926,4.926,0,0,1-.858.16V10.125a2.12,2.12,0,0,0-2.117-2.118h-.836a2.12,2.12,0,0,0-2.117,2.118V14.9l-.858.456V13.767a1.909,1.909,0,0,0-1.906-1.907H10.1A1.908,1.908,0,0,0,8.2,13.767v4.281l-1.531.812-4.3,1.228A2.962,2.962,0,0,0,.315,23.682L.8,25.532A.469.469,0,1,0,1.7,25.3l-.481-1.849a2.013,2.013,0,0,1,1.4-2.456l3.929-1.123,2.953,7.882a2.1,2.1,0,0,1-1.4,2.589l-2.97.675A1.944,1.944,0,0,1,2.822,29.6l-.6-2.32a.469.469,0,1,0-.907.236l.6,2.32A2.875,2.875,0,0,0,4.7,32a22.979,22.979,0,0,0,3.621-.748,2.888,2.888,0,0,0,2.187-3.414l10.274-2.515a5.912,5.912,0,0,0,2.332-1.167l5-4.108a2.224,2.224,0,0,0,.182-3.33ZM16.242,8.945h.836a1.181,1.181,0,0,1,1.18,1.18v9.906H15.3c-.272,0-.084-.182-.069-.194l.852-.69a4.455,4.455,0,0,0,1.542-2.661,1.859,1.859,0,0,0-2.563-2.075V10.125a1.181,1.181,0,0,1,1.18-1.18ZM9.134,13.767A.97.97,0,0,1,10.1,12.8H11.36a.97.97,0,0,1,.969.969v2.087l-3.2,1.7V13.767Zm18.384,5.556-5,4.108a4.963,4.963,0,0,1-1.96.981L10.209,26.946,7.426,19.519,15.372,15.3a.921.921,0,0,1,1.335,1,3.544,3.544,0,0,1-1.214,2.119l-.852.69a1.047,1.047,0,0,0,.658,1.86h3.418A5.845,5.845,0,0,0,22.1,19.9l3.817-2.684a1.32,1.32,0,0,1,1.71.158,1.3,1.3,0,0,1-.106,1.951Zm0,0"/>
      <path id="Path_125" data-name="Path 125" d="M7.713,28.05A1.847,1.847,0,1,0,5.867,29.9,1.849,1.849,0,0,0,7.713,28.05Zm-2.756,0a.909.909,0,1,1,.909.909A.91.91,0,0,1,4.958,28.05Zm0,0"/>
      <path id="Path_126" data-name="Path 126" d="M2.5,14.718,9.31,7.851l1.533.793A1.442,1.442,0,0,0,12.505,8.4l3.709-3.57s-.1,1.834,1.442,1.834A1.444,1.444,0,0,0,19.1,5.223V1.442s0-.009,0-.014A1.365,1.365,0,0,0,17.656,0H13.908a1.444,1.444,0,0,0-1.442,1.442,1.421,1.421,0,0,0,1.613,1.442L11.25,5.607,9.695,4.8a1.436,1.436,0,0,0-1.686.265L.449,12.686a1.444,1.444,0,0,0,.008,2.039A1.422,1.422,0,0,0,2.5,14.718ZM1.114,13.347l7.56-7.618a.426.426,0,0,1,.59-.093l1.853.959a.469.469,0,0,0,.541-.079l3.909-3.763a.469.469,0,0,0-.325-.806H13.908a.5.5,0,0,1,0-1.009h3.748a.441.441,0,0,1,.5.5s0,.008,0,.013V5.223a.5.5,0,0,1-1.009,0V3.73a.469.469,0,0,0-.794-.338l-4.5,4.335a.5.5,0,0,1-.582.085L9.435,6.86a.469.469,0,0,0-.548.086L1.831,14.057a.484.484,0,0,1-.714,0,.505.505,0,0,1,0-.713Zm0,0"/>
    </g>
  </g>
</svg>
