<?xml version="1.0" standalone="no"?>
<!DOCTYPE svg PUBLIC "-//W3C//DTD SVG 20010904//EN"
 "http://www.w3.org/TR/2001/REC-SVG-20010904/DTD/svg10.dtd">
<svg version="1.0" xmlns="http://www.w3.org/2000/svg"
 width="316.000000pt" height="313.000000pt" viewBox="0 0 316.000000 313.000000"
 preserveAspectRatio="xMidYMid meet">

<g transform="translate(0.000000,313.000000) scale(0.100000,-0.100000)"
fill="#5082f7" stroke="none">
<path d="M1516 2825 c-151 -79 -1012 -585 -1022 -601 -12 -17 -14 -115 -12
-558 l3 -536 153 263 152 264 0 200 0 200 340 195 340 196 307 -534 308 -533
108 -1 107 0 0 120 0 119 -346 600 c-378 654 -369 642 -438 606z"/>
<path d="M1779 2733 c11 -21 78 -137 148 -258 l128 -220 175 -101 175 -102 3
-103 c2 -57 0 -236 -3 -396 l-7 -293 -617 0 -617 0 -39 -68 c-21 -37 -45 -76
-52 -88 -12 -19 -7 -24 95 -82 l108 -62 692 0 693 0 24 25 25 24 0 599 c0 557
-1 601 -17 620 -16 18 -913 542 -928 542 -3 0 3 -17 14 -37z"/>
<path d="M1317 2237 l-107 -62 -342 -590 c-350 -605 -364 -634 -327 -670 33
-33 1026 -598 1050 -598 29 0 19 -6 564 309 l380 219 -299 3 -299 2 -170 -97
c-94 -54 -173 -97 -177 -96 -3 1 -156 88 -339 194 -254 147 -332 196 -328 208
2 9 140 252 306 539 l301 523 -51 87 c-28 48 -52 88 -53 89 -1 2 -50 -25 -109
-60z"/>
</g>
</svg>
