<svg id="Logo_Header" xmlns="http://www.w3.org/2000/svg" xmlns:xlink="http://www.w3.org/1999/xlink" width="190.403" height="37" viewBox="0 0 190.403 37">
  <defs>
    <clipPath id="clip-path">
      <rect id="Rectangle_1" data-name="Rectangle 1" width="190.403" height="37" fill="none"/>
    </clipPath>
  </defs>
  <g id="Group_1" data-name="Group 1" clip-path="url(#clip-path)">
    <path id="Path_1" data-name="Path 1" d="M159.35,20.686h4.122l9.9,24.38h-5.161l-2.008-5.229h-9.489l-2.008,5.229h-4.953Zm5.437,15.445L163.126,31.7q-.884-2.336-1.766-5.194h-.1q-1.09,3.687-1.662,5.194l-1.627,4.433Z" transform="translate(-105.833 -14.619)" fill="#32429c"/>
    <path id="Path_2" data-name="Path 2" d="M265.647,63.089h-4.294v-9.94c0-2.217-.97-3.324-2.875-3.324a4.005,4.005,0,0,0-4.052,4.328v8.935h-4.294V53.358c0-2.356-.935-3.532-2.84-3.532-2.493,0-4.052,1.973-4.052,4.467v8.8h-4.328V46.674h4.328v2.009h.07a6.128,6.128,0,0,1,5.2-2.494c2.6,0,4.64,1.144,5.366,3.117a6.328,6.328,0,0,1,5.783-3.082c3.88,0,5.992,2.46,5.992,6.51Z" transform="translate(-168.837 -32.641)" fill="#32429c"/>
    <path id="Path_3" data-name="Path 3" d="M355.685,61.149a9.767,9.767,0,0,1-12.883,0,8.9,8.9,0,0,1,0-12.5,9.664,9.664,0,0,1,12.883,0,8.82,8.82,0,0,1,0,12.5m-1.731-6.267c0-3.187-1.94-5.265-4.709-5.265-2.736,0-4.676,2.079-4.676,5.265s1.94,5.264,4.676,5.264c2.769,0,4.709-2.079,4.709-5.264" transform="translate(-240.445 -32.641)" fill="#32429c"/>
    <path id="Path_4" data-name="Path 4" d="M423.424,50.788a6.638,6.638,0,0,0-2.632-.657c-2.356,0-4.191,1.731-4.191,5.159v7.965h-4.328V46.841H416.6v2.425h.069c1.04-1.905,2.91-2.84,5.577-2.84a6.732,6.732,0,0,1,1.177.1Z" transform="translate(-291.35 -32.808)" fill="#32429c"/>
    <path id="Path_5" data-name="Path 5" d="M462.772,53.074h-4.294V40.331h-2.634V36.659h2.634V32.018h4.294v4.641h4.189v3.671h-4.189Z" transform="translate(-322.142 -22.627)" fill="#32429c"/>
    <path id="Path_6" data-name="Path 6" d="M506.555,26.474c-2.251.174-3.186-2.734-1.731-4.12,1.386-1.559,4.363-.45,4.189,1.731a2.346,2.346,0,0,1-2.458,2.388M508.6,45.729H504.27V29.314H508.6Z" transform="translate(-356.261 -15.282)" fill="#32429c"/>
    <path id="Path_7" data-name="Path 7" d="M545.125,47.842V50.82l-9.524,9.7v.07h10.216v3.671h-15.93V61.279l9.316-9.7v-.07h-8.761V47.842Z" transform="translate(-374.466 -33.81)" fill="#32429c"/>
    <path id="Path_8" data-name="Path 8" d="M593.767,55.816a4.671,4.671,0,0,0,4.813,4.3,7.172,7.172,0,0,0,5.471-2.321l2.149,2.493a10.681,10.681,0,0,1-7.828,3.256,8.622,8.622,0,0,1-6.2-2.425,8.244,8.244,0,0,1-2.528-6.232,8.372,8.372,0,0,1,2.493-6.268,9.078,9.078,0,0,1,6.579-2.425,7.523,7.523,0,0,1,6.1,2.736,10.411,10.411,0,0,1,2.286,6.891Zm9.177-2.978a4.326,4.326,0,0,0-4.433-3.221,4.588,4.588,0,0,0-4.572,3.221Z" transform="translate(-416.697 -32.641)" fill="#32429c"/>
    <g id="Group_20" data-name="Group 20">
      <path id="Path_9" data-name="Path 9" d="M15.139.151.567,8.553A1.132,1.132,0,0,0,0,9.534V25.18L4.494,17.4v-5.92l9.973-5.739,9.071,15.692,3.086,0V17.788L16.685.566A1.132,1.132,0,0,0,15.139.151" transform="translate(0 0)" fill="#32429c"/>
      <path id="Path_10" data-name="Path 10" d="M2.565,47.322l14.562,8.419a1.131,1.131,0,0,0,1.132,0l13.551-7.823-8.982,0L17.7,50.875,7.745,45.107l9.054-15.7-1.546-2.672L12.1,28.557,2.152,45.775a1.132,1.132,0,0,0,.414,1.546" transform="translate(-1.413 -18.893)" fill="#32429c"/>
      <path id="Path_11" data-name="Path 11" d="M53.064,28.3l.01-16.821a1.132,1.132,0,0,0-.566-.981L38.957,2.676l4.488,7.78,5.127,2.96-.016,11.507-18.126.009L28.89,27.607l3.157,1.822,19.885,0A1.132,1.132,0,0,0,53.064,28.3" transform="translate(-20.416 -1.891)" fill="#32429c"/>
    </g>
  </g>
</svg>
