<?xml version="1.0" standalone="no"?>
<!DOCTYPE svg PUBLIC "-//W3C//DTD SVG 20010904//EN"
 "http://www.w3.org/TR/2001/REC-SVG-20010904/DTD/svg10.dtd">
<svg version="1.0" xmlns="http://www.w3.org/2000/svg"
 width="493.000000pt" height="150.000000pt" viewBox="0 0 493.000000 150.000000"
 preserveAspectRatio="xMidYMid meet">

<g transform="translate(0.000000,150.000000) scale(0.100000,-0.100000)"
fill="#5082f7" stroke="none">
<path d="M491 1110 c-85 -49 -161 -96 -168 -103 -10 -10 -13 -52 -11 -183 l3
-169 45 75 c39 66 45 84 50 149 l5 75 109 63 c60 35 112 59 115 54 3 -5 49
-84 101 -175 92 -161 96 -166 128 -166 31 0 32 1 32 41 0 35 -19 74 -111 235
-74 128 -117 194 -128 194 -9 -1 -86 -41 -170 -90z"/>
<path d="M747 1150 c12 -19 34 -57 50 -85 21 -36 44 -58 86 -83 l57 -33 0
-129 0 -130 -201 0 c-180 0 -203 -2 -215 -17 -20 -27 -17 -41 16 -58 23 -12
72 -15 259 -15 l231 0 5 23 c3 12 4 103 3 202 l-3 180 -85 51 c-47 27 -116 68
-155 89 l-69 39 21 -34z"/>
<path d="M1415 848 c-48 -123 -96 -244 -106 -270 l-19 -48 54 0 53 0 22 60 22
61 107 -3 106 -3 22 -55 22 -55 56 -3 56 -3 -16 40 c-8 22 -57 142 -108 268
l-93 228 -46 3 -45 3 -87 -223z m169 -13 c20 -55 36 -101 36 -102 0 -2 -34 -3
-76 -3 -57 0 -74 3 -71 13 3 6 20 54 37 105 18 51 34 92 35 90 2 -2 20 -48 39
-103z"/>
<path d="M3611 1046 c-17 -20 -10 -67 11 -80 28 -17 72 4 76 37 4 36 -13 57
-48 57 -15 0 -33 -6 -39 -14z"/>
<path d="M580 1006 c-26 -17 -63 -72 -140 -207 -58 -101 -105 -191 -105 -202
0 -13 44 -44 163 -113 90 -52 169 -94 177 -94 7 0 77 37 156 83 l143 82 -90 3
c-84 3 -92 1 -150 -30 l-61 -32 -111 63 c-61 35 -110 67 -108 70 201 345 198
339 181 371 -9 16 -17 30 -18 30 -1 0 -18 -11 -37 -24z"/>
<path d="M3340 945 c0 -55 0 -55 -31 -55 -29 0 -30 -2 -27 -37 3 -33 7 -38 31
-41 l27 -3 0 -140 0 -139 45 0 45 0 0 139 0 140 48 3 c46 3 47 3 50 40 l3 37
-48 3 -48 3 -3 53 -3 52 -45 0 -44 0 0 -55z"/>
<path d="M1998 876 c-36 -24 -38 -24 -38 -6 0 17 -7 20 -45 20 l-45 0 0 -180
0 -180 44 0 44 0 4 120 c3 112 5 121 28 144 39 39 74 43 104 12 25 -24 26 -29
26 -151 l0 -125 45 0 45 0 0 110 c0 130 12 162 64 180 39 13 69 3 86 -30 5
-10 10 -73 10 -139 l0 -121 45 0 45 0 0 130 c0 152 -13 198 -64 225 -48 26
-128 17 -166 -20 l-29 -28 -24 28 c-20 24 -34 29 -83 33 -51 3 -64 0 -96 -22z"/>
<path d="M2634 881 c-72 -33 -110 -104 -102 -192 7 -64 41 -113 102 -144 157
-79 330 51 286 215 -13 49 -63 108 -107 126 -46 20 -131 17 -179 -5z m145 -65
c34 -18 51 -54 51 -111 0 -114 -145 -154 -193 -52 -21 43 -21 67 -3 111 26 61
85 83 145 52z"/>
<path d="M3146 885 c-16 -9 -35 -23 -42 -33 -12 -15 -13 -14 -14 11 0 25 -3
27 -45 27 l-45 0 0 -180 0 -180 45 0 45 0 0 100 c0 151 27 196 111 188 l39 -4
0 43 c0 42 -1 43 -32 43 -18 0 -46 -7 -62 -15z"/>
<path d="M4249 877 c-59 -32 -92 -91 -92 -166 0 -64 19 -107 63 -145 61 -51
160 -57 243 -15 47 25 56 45 30 70 -20 20 -20 20 -58 -2 -71 -42 -162 -22
-184 42 l-10 29 150 0 151 0 -7 43 c-9 57 -53 126 -95 148 -50 27 -135 25
-191 -4z m174 -79 l32 -33 -99 -3 c-54 -1 -101 0 -105 3 -3 4 9 20 27 36 47
42 102 41 145 -3z"/>
<path d="M3600 710 l0 -180 45 0 45 0 0 180 0 180 -45 0 -45 0 0 -180z"/>
<path d="M3780 850 l0 -40 97 0 97 0 -107 -109 c-90 -91 -107 -113 -107 -140
l0 -31 175 0 175 0 0 40 0 40 -112 0 -113 0 108 108 c92 92 107 112 107 140
l0 32 -160 0 -160 0 0 -40z"/>
</g>
</svg>
