<?xml version="1.0" standalone="no"?>
<!DOCTYPE svg PUBLIC "-//W3C//DTD SVG 20010904//EN"
 "http://www.w3.org/TR/2001/REC-SVG-20010904/DTD/svg10.dtd">
<svg version="1.0" xmlns="http://www.w3.org/2000/svg"
 width="320.000000pt" height="278.000000pt" viewBox="0 0 320.000000 278.000000"
 preserveAspectRatio="xMidYMid meet">

<g transform="translate(0.000000,278.000000) scale(0.100000,-0.100000)"
fill="#5082f7" stroke="none">
<path d="M1284 2337 c-395 -227 -393 -226 -399 -250 -3 -12 -4 -164 -3 -338
l3 -316 90 156 90 156 5 129 5 128 205 118 c113 65 207 116 210 113 3 -2 89
-149 191 -326 l186 -322 67 -3 66 -3 0 73 0 73 -210 365 c-189 329 -229 390
-250 390 -4 0 -119 -64 -256 -143z"/>
<path d="M1670 2435 c0 -3 39 -74 87 -157 93 -161 89 -156 231 -237 l72 -42 0
-244 0 -245 -381 -2 -380 -3 -30 -52 -30 -52 61 -35 61 -36 433 0 c323 0 435
3 444 12 9 9 12 108 12 385 l0 373 -37 24 c-21 13 -114 68 -208 121 -93 54
-207 120 -252 146 -46 27 -83 46 -83 44z"/>
<path d="M1388 2107 l-56 -32 -209 -360 c-139 -241 -208 -370 -208 -389 0 -27
16 -38 315 -212 173 -101 323 -183 332 -183 10 -1 144 72 299 161 l282 163
-182 3 -182 2 -103 -60 c-56 -33 -106 -60 -111 -60 -13 0 -415 235 -415 242 0
4 84 153 186 330 l187 323 -28 52 c-15 29 -33 53 -39 53 -6 -1 -37 -15 -68
-33z"/>
<path d="M366 731 c-8 -12 -176 -439 -176 -446 0 -3 20 -5 44 -5 44 0 44 0 61
50 l17 50 93 0 93 0 17 -50 17 -50 48 0 48 0 -85 208 c-46 114 -89 217 -94
230 -6 17 -17 22 -43 22 -19 0 -37 -4 -40 -9z m41 -279 c-33 -2 -61 -1 -63 0
-2 2 10 42 26 88 16 47 30 87 30 90 1 3 16 -35 34 -85 l32 -90 -59 -3z"/>
<path d="M2160 716 c-6 -8 -10 -25 -8 -38 4 -32 62 -39 78 -9 23 44 -38 85
-70 47z"/>
<path d="M1930 636 c0 -42 -2 -46 -25 -46 -22 0 -25 -4 -25 -35 0 -31 3 -35
25 -35 l25 0 0 -120 0 -120 40 0 40 0 0 120 0 120 40 0 c39 0 40 1 40 35 0 34
-1 35 -39 35 -40 0 -40 0 -43 43 -3 41 -4 42 -40 45 l-38 3 0 -45z"/>
<path d="M825 593 c-10 -3 -29 -12 -42 -20 -21 -14 -23 -14 -23 1 0 12 -10 16
-40 16 l-40 0 0 -155 0 -155 40 0 40 0 0 99 c0 84 3 102 21 125 13 17 30 26
49 26 52 0 60 -20 60 -141 l0 -109 40 0 40 0 0 99 c0 84 3 102 21 125 26 33
83 37 99 7 5 -11 10 -67 10 -125 l0 -106 40 0 40 0 0 118 c0 139 -14 174 -77
191 -46 13 -106 -1 -126 -30 -13 -18 -15 -18 -28 -3 -15 19 -71 45 -91 43 -7
-1 -22 -4 -33 -6z"/>
<path d="M1347 586 c-48 -17 -71 -38 -91 -81 -47 -98 13 -211 123 -230 153
-26 258 148 158 262 -16 18 -37 38 -46 42 -32 18 -106 21 -144 7z m97 -60 c33
-14 56 -54 56 -98 0 -36 -29 -76 -63 -87 -64 -22 -117 20 -117 92 0 50 15 76
53 92 40 18 32 17 71 1z"/>
<path d="M1792 589 c-18 -3 -42 -15 -52 -24 -19 -17 -20 -17 -20 3 0 19 -6 22
-40 22 l-40 0 0 -155 0 -155 40 0 40 0 0 100 c0 95 2 102 26 127 22 22 31 24
65 19 39 -6 39 -6 39 28 0 39 -11 46 -58 35z"/>
<path d="M2741 590 c-126 -31 -164 -201 -63 -280 60 -48 171 -46 229 4 25 21
25 21 5 39 -19 18 -22 18 -53 1 -48 -24 -104 -22 -134 6 -14 13 -25 32 -25 42
0 16 11 18 124 18 l123 0 -7 38 c-18 102 -100 156 -199 132z m107 -83 c12 -11
22 -24 22 -29 0 -4 -38 -8 -85 -8 -47 0 -85 4 -85 8 0 13 43 50 65 55 29 6 57
-2 83 -26z"/>
<path d="M2150 435 l0 -155 40 0 40 0 0 155 0 155 -40 0 -40 0 0 -155z"/>
<path d="M2300 555 l0 -34 80 -3 79 -3 -84 -90 c-62 -67 -84 -97 -85 -117 l0
-28 150 0 150 0 0 35 0 35 -97 0 -98 0 88 88 c73 74 87 92 87 120 l0 32 -135
0 -135 0 0 -35z"/>
</g>
</svg>
